# xmcd
#
# Track frame offsets:
#	150
#	9809
#	26331
#	43731
#	52140
#	62342
#	72423
#	81670
#	95338
#	112212
#	128005
#	140089
#
# Disc length: 1995 seconds
#
# Revision: 0
# Processed by: cddbd v1.5.1PL0 Copyright (c) Steve Scherf et al.
# Submitted via: dBpowerAMP V4.0
#
DISCID=a707c90c
DTITLE=Various Artist - Classic Country Christmas Volume One
DYEAR=2003
DGENRE=Country/Christma
TTITLE0=Blue Christmas - Elvis Presley
TTITLE1=Christmas In Dixie - Alabama
TTITLE2=Hard Candy Christmas - Dolly Parton
TTITLE3=Let It Snow, Let It Snow, Let It Snow - Charley Pride
TTITLE4=A Holly Jolly Christmas - Alan Jackson
TTITLE5=Santa Looked A Lot Like Daddy - Buck Owens
TTITLE6=Jingle Bells - Chet Atkins
TTITLE7=Silver Bells - Ronnie Milsap
TTITLE8=My Favorite Things - Lorrie Morgan
TTITLE9=What Child Is This - The Judds
TTITLE10=I'll Be Home For Christmas - John Anderson
TTITLE11=What A Merry Christmas This Could Be - Willie Nelson
EXTD=
EXTT0=
EXTT1=
EXTT2=
EXTT3=
EXTT4=
EXTT5=
EXTT6=
EXTT7=
EXTT8=
EXTT9=
EXTT10=
EXTT11=
PLAYORDER=
